<svg xmlns="http://www.w3.org/2000/svg" version="1.0" width="111px" height="5px" viewBox="0 0 458 17" preserveAspectRatio="xMidYMid meet">
<g transform="translate(0,17) scale(0.100000,-0.100000)" fill="#ef6c00" stroke="none">
<path d="M22 147 c-31 -33 -30 -96 1 -125 23 -22 28 -22 353 -22 l331 0 21 23 c31 33 30 96 -1 125 -23 22 -28 22 -353 22 l-331 0 -21 -23z"/>
<path d="M1062 147 c-31 -33 -30 -96 1 -125 l23 -22 1205 0 1206 0 21 23 c31 33 30 96 -1 125 l-23 22 -1205 0 -1206 0 -21 -23z"/>
<path d="M3852 147 c-31 -33 -30 -96 1 -125 23 -22 28 -22 353 -22 l331 0 21 23 c31 33 30 96 -1 125 -23 22 -28 22 -353 22 l-331 0 -21 -23z"/>
</g>
</svg>