<svg xmlns="http://www.w3.org/2000/svg" version="1.0" width="100%" height="100%" viewBox="0 0 1920 1012">
<g transform="translate(0,980) scale(0.100000,-0.100000)" fill="#050b54" stroke="none">
<path d="M0 7916 l0 -2205 25 -138 c98 -529 266 -999 493 -1380 33 -57 78 -140 98 -185 240 -535 691 -978 1226 -1207 62 -26 156 -62 208 -79 149 -49 9922 -2658 10040 -2681 318 -60 673 -52 995 24 316 74 615 216 895 423 122 90 394 360 3853 3812 l1367 1365 0 2145 c0 1180 -3 2182 -7 2228 l-6 82 -9593 0 -9594 0 0 -2204z"/>
</g>


<g transform="translate(65,1000) scale(0.100000,-0.100000)" fill="#212993" stroke="none">
<path d="M16055 3467 c-1694 -1690 -2615 -2601 -2681 -2653 -356 -283 -754 -452 -1214 -515 -122 -17 -447 -17 -570 0 -52 7 -144 23 -205 36 -139 29 -9886 2635 -10015 2677 -542 177 -1006 547 -1306 1040 -32 53 -60 95 -62 94 -6 -6 40 -112 99 -230 114 -227 255 -422 439 -607 272 -273 588 -469 950 -587 149 -49 9922 -2658 10040 -2681 318 -60 673 -52 995 24 226 53 469 151 667 270 269 161 158 55 2688 2576 1290 1286 2438 2431 2553 2546 l207 209 -2 187 -3 188 -2580 -2574z"/>
</g>
</svg>