<svg xmlns="http://www.w3.org/2000/svg" version="1.0" width="100%" height="100%" viewBox="0 0 1920 633" preserveAspectRatio="xMidYMid meet">
<!-- svg background -->
<g transform="translate(0,633) scale(0.100000,-0.100000)" fill="#030842" stroke="none">
<path d="M7115 6305 c-49 -8 -142 -28 -205 -43 -73 -18 -974 -341 -2445 -877 -1282 -466 -2809 -1022 -3395 -1235 l-1065 -388 -3 -1881 -2 -1881 9600 0 9600 0 0 1613 -1 1612 -869 630 c-479 347 -912 659 -963 695 -237 165 -486 273 -807 350 -69 16 -586 102 -1150 190 -564 88 -1252 196 -1530 240 -278 44 -680 107 -895 140 -372 58 -1378 216 -1910 300 -137 22 -898 141 -1690 265 -792 124 -1510 237 -1595 251 -194 33 -528 42 -675 19z"/>
</g>
<!-- svg map -->
<g transform="translate(0,633) scale(0.100000,-0.100000)" fill="#0f1449" stroke="none">
<path d="M7111 6104 c-51 -7 -126 -22 -166 -33 -69 -19 -1034 -367 -1043 -376 -2 -2 20 -15 49 -29 46 -21 78 -26 217 -34 116 -8 170 -15 187 -26 13 -9 50 -69 85 -139 61 -122 61 -125 49 -166 -10 -35 -10 -44 3 -58 9 -10 16 -31 16 -46 -1 -38 6 -42 41 -21 30 18 31 18 58 -2 20 -15 29 -31 31 -57 3 -33 -1 -38 -40 -63 -55 -34 -58 -39 -58 -97 0 -55 41 -145 124 -267 28 -42 56 -84 61 -93 6 -9 47 -26 96 -39 72 -18 90 -20 102 -9 15 12 79 191 92 258 6 30 11 33 115 68 102 34 110 38 120 69 14 45 35 61 100 81 98 30 143 47 239 93 l93 44 -6 37 c-3 20 -9 51 -12 69 -4 21 2 57 16 103 20 60 30 75 66 102 51 38 57 49 43 85 -10 25 -23 82 -36 160 -6 36 18 82 42 82 23 0 18 14 -15 43 -62 56 -49 104 45 173 78 58 88 52 -130 83 -165 25 -436 27 -584 5z"/>
<path d="M10640 5617 c-41 -15 -122 -68 -162 -105 -18 -16 -28 -36 -28 -53 0 -15 -11 -41 -25 -57 -14 -17 -25 -33 -25 -38 0 -4 -12 -21 -27 -36 l-27 -28 29 -30 c30 -31 118 -70 160 -70 31 0 31 3 3 41 -19 25 -23 44 -23 101 0 63 3 72 25 89 14 11 53 46 88 77 35 31 86 69 114 85 39 21 45 27 27 27 -13 0 -40 2 -59 5 -19 3 -51 -1 -70 -8z"/>
<path d="M5365 5504 c-82 -31 -152 -58 -155 -61 -3 -3 65 -2 150 2 159 7 200 17 235 55 16 17 15 19 -7 34 -46 30 -69 26 -223 -30z"/>
<path d="M11657 5460 c4 -13 0 -26 -8 -31 -8 -5 -69 -9 -136 -9 -134 0 -133 1 -112 -59 7 -19 18 -31 29 -31 22 0 64 -50 53 -61 -4 -4 -47 2 -95 13 -70 17 -93 19 -113 10 -31 -14 -32 -26 -2 -40 20 -10 18 -11 -19 -11 -48 -1 -58 12 -48 68 l7 36 -21 -26 c-17 -21 -21 -41 -22 -100 0 -41 -1 -85 -3 -99 -2 -22 3 -25 40 -30 50 -7 71 -24 90 -69 17 -41 11 -50 -11 -16 -9 13 -27 32 -40 40 -21 14 -28 14 -46 3 -17 -11 -20 -19 -15 -50 6 -35 4 -38 -48 -77 -57 -42 -78 -44 -134 -13 -21 12 -12 17 52 26 43 6 85 43 85 75 0 10 -11 28 -25 41 -22 20 -25 32 -25 86 0 35 -4 74 -9 88 -7 18 -5 39 10 80 10 31 19 60 19 66 0 6 -27 10 -64 10 l-64 0 -16 -46 c-8 -25 -27 -59 -41 -75 -29 -35 -30 -46 -10 -73 8 -11 15 -28 15 -38 0 -10 7 -21 15 -25 19 -7 45 -55 45 -82 0 -35 -20 -34 -61 4 -45 40 -171 105 -204 105 -12 0 -30 -6 -40 -14 -18 -13 -18 -14 3 -27 29 -18 28 -33 -3 -47 -33 -15 -62 -15 -67 0 -3 9 -22 8 -78 -4 -49 -11 -80 -13 -91 -7 -40 21 -90 9 -194 -46 -56 -30 -107 -55 -114 -55 -17 0 -53 39 -46 50 4 6 16 10 28 10 l21 0 -22 22 -22 22 -25 -24 -25 -24 27 -28 c23 -24 25 -31 15 -52 -10 -22 -17 -25 -63 -24 -47 1 -55 -2 -80 -30 -16 -18 -29 -40 -29 -48 0 -14 -7 -15 -41 -10 -54 9 -66 -1 -38 -30 12 -13 19 -27 15 -31 -13 -13 -73 -7 -100 10 -23 16 -26 24 -26 78 0 55 -3 64 -31 90 -18 16 -30 31 -28 34 3 2 45 -10 94 -26 69 -23 100 -29 132 -24 50 7 65 24 67 72 1 35 -1 38 -34 43 -19 4 -62 21 -94 38 -32 18 -69 32 -81 32 -34 0 -125 30 -125 41 0 5 10 14 23 20 17 7 13 8 -18 3 -59 -9 -88 -6 -104 11 -14 13 -12 15 10 15 14 0 33 6 43 13 17 12 14 15 -26 30 -62 24 -89 21 -136 -13 -50 -36 -54 -29 -9 18 l32 34 -39 -8 c-22 -4 -49 -17 -60 -30 -12 -12 -57 -37 -101 -55 -70 -28 -90 -42 -160 -114 -49 -50 -95 -110 -120 -154 -45 -83 -137 -172 -222 -215 -29 -14 -57 -35 -63 -45 -17 -32 -13 -167 6 -185 33 -33 109 -7 144 49 l23 37 18 -23 c10 -13 19 -32 19 -42 0 -10 16 -41 35 -70 19 -28 35 -62 35 -74 0 -32 46 -32 56 -1 4 12 17 30 30 40 12 10 26 33 29 51 7 34 50 87 71 87 6 0 18 7 25 17 12 13 12 17 1 21 -7 2 -24 14 -37 26 -21 20 -22 24 -12 66 10 38 20 50 62 77 75 48 75 48 62 82 -14 38 11 81 49 81 48 0 122 -53 96 -69 -7 -4 -41 -34 -76 -66 -53 -48 -63 -62 -55 -76 5 -10 9 -33 9 -53 0 -59 23 -68 166 -60 86 5 123 3 128 -5 5 -7 -4 -11 -27 -11 -21 0 -37 -6 -40 -14 -4 -10 -18 -12 -51 -9 -24 3 -66 2 -91 -2 l-47 -7 23 -24 c12 -13 28 -24 36 -24 16 0 16 -5 1 -47 -10 -27 -16 -32 -33 -27 -11 4 -28 13 -37 21 -33 30 -51 6 -50 -67 0 -3 3 -15 7 -28 5 -16 2 -23 -12 -28 -10 -3 -35 -14 -55 -24 -25 -13 -57 -20 -96 -20 -42 0 -63 -5 -73 -16 -9 -11 -21 -14 -38 -9 -14 4 -48 10 -76 13 -45 6 -52 11 -68 45 -18 36 -18 38 2 80 37 76 26 100 -33 77 -22 -8 -26 -16 -26 -53 0 -24 7 -66 15 -93 19 -62 19 -64 -2 -64 -10 0 -31 -7 -47 -15 -15 -8 -41 -15 -56 -15 -35 0 -48 -16 -52 -65 -3 -34 -7 -40 -28 -43 -60 -7 -71 -12 -65 -32 5 -15 0 -23 -19 -32 -14 -6 -26 -17 -26 -25 0 -8 -12 -13 -35 -13 -21 0 -43 -8 -54 -19 -15 -15 -28 -18 -60 -14 -23 3 -41 2 -41 -2 0 -12 42 -45 57 -45 7 0 17 -8 20 -17 4 -10 20 -30 35 -45 27 -25 29 -32 26 -90 l-3 -63 -110 3 c-60 2 -127 5 -149 9 -28 4 -37 2 -31 -7 9 -15 10 -144 0 -191 -4 -22 -3 -39 3 -43 7 -4 7 -18 1 -39 -5 -17 -9 -32 -9 -32 0 0 25 2 55 3 50 4 55 2 55 -17 0 -18 3 -19 26 -11 14 6 40 10 58 10 18 0 44 8 57 18 13 10 32 21 42 25 19 7 41 53 31 68 -10 17 56 109 85 116 31 7 41 20 41 50 0 34 44 59 76 44 22 -10 31 -7 69 20 52 37 89 34 107 -9 14 -32 87 -112 104 -112 6 0 32 -16 57 -35 50 -38 67 -76 47 -100 -22 -27 -3 -27 23 -1 17 17 23 32 20 49 -6 30 12 43 34 25 14 -11 16 -11 12 1 -3 8 -39 37 -79 65 -47 32 -81 64 -90 84 -8 17 -23 34 -32 38 -13 4 -18 16 -18 39 0 64 60 54 96 -17 9 -17 35 -38 69 -53 68 -33 107 -77 99 -111 -4 -15 -1 -31 8 -42 28 -33 58 -93 58 -116 0 -14 10 -30 25 -40 24 -16 26 -16 31 1 3 10 11 28 17 41 8 17 7 25 -5 35 -9 6 -18 23 -21 37 -2 14 -8 33 -11 42 -5 11 0 21 17 32 20 14 32 15 76 4 28 -6 51 -15 51 -20 0 -5 12 0 27 11 15 13 34 19 45 16 24 -8 23 12 -2 27 -24 15 -27 60 -5 78 8 7 15 22 15 34 0 12 9 29 20 39 11 9 20 25 20 35 0 33 37 62 78 61 30 0 33 -2 17 -9 -17 -7 -15 -9 12 -9 43 -1 49 -15 16 -40 -22 -16 -24 -20 -10 -21 9 0 17 -7 17 -15 0 -20 21 -19 65 2 l35 17 -27 23 -28 23 25 19 c14 11 47 25 73 31 62 13 67 13 67 -5 0 -9 -9 -15 -21 -15 -17 0 -19 -3 -10 -14 10 -11 8 -19 -6 -35 -9 -12 -25 -21 -35 -21 -30 0 -20 -20 16 -35 51 -21 144 -94 152 -118 17 -54 -111 -81 -191 -40 -16 8 -58 17 -92 20 -52 5 -64 3 -69 -11 -3 -9 -16 -16 -28 -16 -33 0 -66 -11 -61 -20 6 -10 -12 -16 -72 -25 -43 -7 -64 -22 -46 -34 6 -3 14 -25 17 -47 8 -48 38 -80 87 -94 27 -8 36 -7 46 5 10 15 15 15 48 1 42 -18 85 -21 85 -6 0 6 16 10 36 10 l36 0 -4 -59 c-3 -40 -14 -79 -34 -117 -25 -50 -34 -59 -64 -65 -23 -5 -45 -3 -62 6 -24 12 -32 11 -59 -2 -26 -13 -40 -14 -92 -3 -34 7 -76 18 -94 26 -17 8 -35 14 -41 14 -5 0 -15 7 -22 15 -7 8 -28 15 -46 15 -44 0 -73 -28 -67 -64 7 -35 -19 -44 -63 -22 -19 9 -43 16 -53 16 -10 0 -32 14 -49 30 -18 17 -38 30 -47 30 -21 0 -107 30 -133 46 l-23 15 20 25 c16 21 18 30 9 49 -8 18 -8 28 2 40 10 12 8 16 -15 25 -19 7 -31 7 -40 0 -8 -6 -35 -11 -62 -10 -138 2 -253 -22 -318 -64 -25 -16 -121 -14 -138 3 -18 18 -26 13 -43 -28 -11 -29 -27 -45 -63 -65 -45 -24 -49 -29 -55 -74 -11 -75 -14 -80 -68 -109 -43 -24 -62 -45 -129 -145 l-78 -118 20 -57 c24 -71 24 -82 -2 -136 l-22 -44 44 -63 c94 -134 108 -152 130 -176 13 -14 55 -43 93 -65 61 -35 76 -40 106 -33 19 4 71 8 115 9 54 1 91 7 114 19 20 11 66 20 110 23 75 5 76 5 105 -26 25 -26 37 -31 77 -31 39 0 51 -5 67 -25 16 -20 18 -32 11 -67 -18 -94 -13 -117 38 -167 40 -40 50 -57 70 -131 35 -126 39 -174 17 -207 -10 -16 -23 -61 -30 -101 -13 -71 -12 -75 10 -110 50 -80 76 -144 87 -214 8 -56 17 -80 38 -103 40 -43 81 -123 81 -156 0 -15 11 -40 23 -55 l24 -27 94 11 c162 21 172 23 213 58 22 19 43 34 47 34 5 0 27 26 51 58 23 31 48 62 54 67 7 6 14 33 16 60 3 49 4 50 43 63 22 7 46 20 53 29 17 23 15 78 -3 114 -15 27 -14 32 3 54 30 38 74 71 115 86 44 16 60 32 76 78 15 45 3 139 -22 173 -13 17 -17 35 -14 50 4 15 0 33 -9 47 -15 21 -14 25 22 77 54 79 137 167 204 219 38 29 79 76 118 132 59 88 107 182 97 191 -3 3 -59 -6 -126 -20 l-121 -26 -34 20 c-25 15 -34 27 -34 47 0 28 -39 69 -90 94 -14 7 -34 31 -45 54 -11 23 -30 52 -41 65 -12 13 -24 43 -27 67 -3 27 -15 53 -31 70 -14 15 -26 31 -26 37 0 5 -25 53 -55 107 -30 53 -55 104 -55 112 0 24 20 17 30 -10 11 -28 25 -32 34 -10 7 20 22 19 29 -2 10 -28 82 -139 116 -178 18 -21 33 -52 37 -75 4 -25 15 -45 29 -54 36 -23 92 -117 109 -180 20 -77 26 -83 73 -63 21 9 56 19 78 23 22 4 47 12 55 18 8 7 40 20 71 29 31 10 62 24 69 32 6 7 26 17 43 21 18 4 37 14 44 24 6 9 30 22 52 30 31 10 41 19 46 40 3 16 14 30 25 33 10 2 26 17 36 32 17 25 17 28 1 37 -9 5 -17 15 -17 22 0 7 -19 19 -42 27 -29 9 -44 21 -52 40 l-10 27 -18 -24 c-22 -27 -80 -47 -123 -42 -24 2 -31 9 -36 33 -4 17 -7 24 -8 18 -2 -24 -21 -13 -41 25 -11 20 -34 56 -52 79 -31 42 -31 43 -13 63 31 34 88 21 99 -24 3 -13 25 -39 47 -57 35 -27 53 -34 103 -37 43 -3 66 -10 79 -23 10 -11 26 -19 37 -19 10 0 47 -7 81 -16 58 -15 69 -15 130 0 91 22 98 21 113 -15 14 -33 59 -59 103 -59 13 0 21 -4 18 -10 -3 -5 -18 -10 -32 -10 l-26 0 23 -25 c32 -34 73 -33 98 2 l19 26 7 -108 c8 -120 11 -127 103 -283 31 -50 61 -92 68 -92 21 0 42 33 70 105 16 43 24 81 21 97 -5 28 14 58 37 58 7 0 40 25 75 55 35 30 78 67 97 81 19 15 35 32 35 40 0 8 16 15 38 19 20 3 57 12 82 20 34 11 46 11 49 2 2 -6 27 -36 55 -65 45 -48 51 -59 51 -100 1 -58 23 -67 65 -27 l28 27 21 -66 c27 -88 35 -155 22 -188 -14 -36 -8 -47 44 -85 30 -22 45 -42 50 -65 12 -55 31 -82 73 -106 50 -28 56 -28 38 1 -8 12 -19 41 -26 65 -8 32 -21 50 -50 70 -22 15 -46 43 -54 63 -8 20 -22 39 -30 42 -9 4 -16 13 -16 22 0 27 43 115 57 115 7 0 13 -4 13 -8 0 -5 25 -19 55 -31 57 -24 95 -60 95 -92 0 -26 5 -24 61 17 62 45 79 70 79 112 0 45 -13 67 -73 129 -46 47 -49 55 -40 76 13 29 95 77 130 77 16 0 27 -7 30 -19 5 -18 6 -18 22 -2 10 10 47 23 82 30 61 12 150 52 195 89 12 9 43 54 69 100 45 78 47 83 31 101 -11 13 -16 34 -15 70 2 46 -1 55 -32 87 l-34 36 53 47 c28 26 49 51 45 54 -3 4 -29 4 -58 1 -48 -6 -53 -4 -73 21 -12 15 -22 32 -22 37 0 5 20 17 45 28 24 10 58 29 74 41 34 25 61 20 61 -12 0 -17 4 -20 24 -15 39 10 76 -9 76 -38 0 -18 9 -30 30 -41 34 -17 38 -30 14 -43 -11 -6 -13 -11 -5 -16 6 -4 11 -27 11 -52 0 -40 2 -44 25 -44 28 0 51 30 61 78 5 25 0 42 -25 80 -17 27 -31 54 -31 60 0 6 16 23 35 37 19 15 42 43 52 63 10 20 30 44 44 55 25 18 28 18 51 3 21 -14 27 -14 53 0 47 24 132 113 172 179 21 36 46 99 61 155 39 152 40 146 -4 187 l-39 37 -3 -28 c-3 -25 -7 -27 -40 -24 -29 2 -40 9 -50 31 -9 19 -21 27 -39 27 -26 0 -26 0 -7 21 10 12 39 33 64 47 44 26 192 148 198 164 5 12 129 10 173 -3 29 -9 42 -9 53 0 9 8 31 10 65 5 49 -6 64 -17 39 -27 -7 -3 13 -6 44 -6 48 -1 56 2 51 15 -7 20 41 72 85 91 19 7 52 18 75 22 23 5 50 12 60 16 14 6 17 2 17 -19 0 -34 15 -33 57 4 18 17 45 30 58 30 28 0 34 -15 10 -24 -8 -3 -15 -17 -15 -30 0 -20 -13 -33 -57 -62 -32 -20 -72 -49 -88 -65 -17 -16 -57 -39 -90 -53 l-60 -24 -3 -64 c-4 -75 21 -179 50 -204 26 -24 45 -11 80 52 14 27 40 63 58 80 32 31 79 146 62 152 -5 1 -18 9 -28 16 -18 14 -18 15 -1 34 9 10 47 34 84 52 61 29 68 31 79 15 8 -11 14 -13 19 -5 4 6 33 10 73 8 61 -2 76 2 171 45 78 35 116 47 152 47 27 0 49 2 49 3 0 15 -36 70 -51 80 -26 16 -24 27 5 27 39 0 77 18 83 39 7 28 31 34 43 11 7 -14 21 -20 44 -20 21 0 40 -8 55 -24 12 -13 34 -26 49 -29 15 -3 34 -8 42 -11 11 -5 19 3 27 23 10 27 16 30 59 33 l49 3 -52 28 c-29 15 -79 37 -110 49 -32 11 -71 31 -88 43 -16 12 -79 48 -140 80 -100 53 -120 59 -225 75 -63 10 -116 17 -118 15 -2 -2 1 -12 7 -23 18 -33 13 -42 -21 -42 -20 0 -41 9 -57 24 -24 22 -36 25 -151 29 -69 3 -133 8 -142 12 -11 4 -18 20 -20 43 -3 35 -6 38 -58 55 -42 14 -74 17 -137 13 -82 -5 -82 -5 -107 25 -25 29 -34 32 -178 55 -84 13 -168 26 -185 29 -28 5 -33 3 -33 -13 0 -25 -49 -35 -105 -22 -22 5 -61 10 -87 10 -26 0 -50 5 -53 10 -11 18 -42 10 -59 -15 -35 -53 -99 -17 -101 57 l-1 42 -362 57 c-341 53 -365 56 -418 43 -54 -12 -55 -12 -39 6 20 22 51 15 -335 75 -162 25 -307 48 -322 51 -23 5 -26 3 -21 -16z m-1249 -1603 c6 -5 12 -19 12 -33 0 -23 9 -29 40 -24 12 1 12 -1 3 -11 -8 -8 -34 -12 -69 -10 -48 2 -56 0 -51 -13 4 -10 1 -16 -7 -16 -22 0 19 -76 44 -83 17 -4 20 -10 14 -32 -6 -24 -4 -26 14 -21 15 5 24 1 31 -13 17 -31 13 -41 -14 -41 -27 0 -33 -21 -11 -39 7 -6 16 -30 19 -54 3 -23 9 -53 13 -66 l7 -24 -74 5 c-41 3 -89 13 -107 23 -30 16 -32 19 -26 58 4 23 15 62 24 87 l18 45 -36 20 c-28 16 -39 30 -49 65 -7 25 -21 51 -31 59 -14 11 -15 14 -3 19 8 3 33 25 55 50 23 24 50 48 61 52 25 10 106 7 123 -3z"/>
<path d="M5054 5365 c-28 -24 -29 -29 -29 -107 0 -56 -4 -83 -12 -85 -17 -6 -17 -95 -1 -111 7 -7 27 -12 44 -12 38 0 53 -16 24 -25 -20 -7 -28 -25 -10 -25 14 0 13 -33 -2 -48 -7 -7 -21 -12 -31 -12 -16 0 -19 -5 -13 -30 3 -16 2 -30 -3 -30 -16 0 -42 38 -39 57 2 15 -3 18 -32 18 -27 0 -37 -5 -45 -23 -10 -23 -13 -24 -97 -20 -68 3 -94 9 -115 24 -44 32 -61 35 -97 17 -29 -14 -33 -19 -26 -38 12 -33 19 -85 11 -85 -4 0 -21 15 -37 34 l-30 33 -96 -5 c-111 -5 -150 2 -104 22 26 10 27 13 12 25 -9 8 -38 15 -64 18 -26 2 -82 12 -124 23 -88 23 -118 25 -118 9 0 -8 -12 -10 -34 -6 -19 3 -37 3 -40 -1 -4 -3 -14 -7 -24 -8 -9 -2 -332 -118 -717 -258 l-700 -255 3 -28 c4 -39 24 -56 74 -62 34 -5 43 -10 43 -26 0 -18 6 -20 70 -17 39 2 78 5 88 8 33 10 18 -25 -35 -79 -38 -38 -70 -59 -113 -76 -63 -23 -149 -71 -128 -71 7 0 32 9 55 19 24 11 75 31 113 45 89 33 225 133 243 178 18 43 68 95 114 119 54 27 68 23 29 -8 -61 -51 -71 -63 -71 -88 0 -19 4 -23 18 -18 33 12 99 62 116 87 20 31 50 33 91 6 17 -12 47 -20 70 -20 22 0 80 -12 129 -27 84 -25 91 -30 144 -90 30 -35 61 -63 67 -63 6 0 24 -13 40 -30 16 -16 39 -30 51 -30 25 0 54 -34 54 -62 0 -10 12 -25 26 -35 14 -9 37 -33 49 -53 18 -29 34 -40 67 -48 51 -13 104 -47 127 -81 17 -27 21 -26 -58 -5 l-23 7 26 -49 c30 -57 33 -104 10 -189 -24 -91 -13 -165 37 -241 22 -34 45 -80 52 -104 7 -24 19 -46 27 -50 111 -51 114 -54 145 -117 17 -34 42 -75 58 -90 32 -34 34 -43 7 -36 -33 9 -23 -4 31 -36 31 -20 55 -44 64 -64 15 -35 50 -63 60 -47 8 13 -8 40 -55 95 -38 44 -78 112 -100 171 -10 24 -9 24 18 9 46 -25 61 -41 78 -81 10 -25 59 -80 136 -156 74 -71 118 -121 113 -128 -14 -23 16 -68 58 -88 64 -30 246 -82 287 -82 26 0 50 -10 81 -32 24 -17 73 -40 109 -51 98 -29 165 -73 183 -119 13 -31 26 -43 69 -63 29 -14 60 -25 68 -25 9 0 21 -5 28 -12 9 -9 17 -7 35 10 45 42 68 25 93 -72 15 -57 11 -68 -46 -134 -51 -58 -104 -165 -96 -195 3 -13 30 -59 59 -103 30 -43 69 -108 87 -143 43 -79 69 -107 160 -160 81 -48 100 -79 100 -158 0 -55 -19 -167 -50 -298 -72 -303 -114 -508 -130 -635 l-18 -144 26 -65 c33 -80 75 -121 169 -168 l73 -36 88 13 c81 13 84 14 47 21 -46 7 -127 43 -143 62 -6 7 -18 41 -26 74 l-14 62 65 65 c55 56 63 68 54 85 -13 23 -15 81 -3 81 9 0 46 77 58 119 5 21 10 23 50 18 39 -4 42 -3 34 14 -6 10 -14 29 -20 43 -9 24 -6 27 24 40 19 8 39 22 44 32 8 14 23 19 61 20 64 1 95 25 86 66 -6 27 -5 28 24 22 29 -6 38 1 145 109 79 80 118 127 126 154 30 93 47 113 124 149 56 25 79 42 100 74 27 41 68 66 88 54 19 -12 28 21 28 108 0 52 4 90 11 94 6 3 9 17 6 29 -3 19 3 26 33 40 21 9 54 38 73 64 34 44 36 51 30 99 -5 49 -7 52 -34 52 -16 0 -57 15 -91 34 -55 30 -102 45 -296 96 -35 9 -48 19 -73 60 -21 34 -41 53 -69 64 -22 9 -40 20 -40 25 0 5 -11 23 -25 39 -19 23 -39 32 -87 41 -76 15 -135 48 -205 113 -49 47 -55 50 -138 63 -48 8 -95 17 -104 20 -9 3 -50 9 -90 14 -63 8 -83 7 -138 -10 -56 -18 -68 -26 -92 -65 -25 -38 -30 -42 -41 -29 -10 12 -31 15 -89 13 -65 -2 -82 1 -114 21 -35 22 -38 27 -32 55 14 69 17 117 6 130 -7 9 -46 16 -106 21 -90 6 -114 15 -80 29 9 3 15 18 15 40 0 19 5 36 11 38 5 2 19 22 29 46 l19 42 -52 0 c-62 0 -66 -3 -95 -60 l-22 -45 -63 0 c-72 0 -94 10 -135 63 -54 68 -57 82 -28 140 22 44 24 52 10 63 -28 23 -11 53 56 97 61 41 68 44 114 37 28 -3 54 -9 60 -12 14 -9 66 -9 66 0 0 4 -7 7 -15 7 -18 0 -20 16 -2 23 7 2 59 3 116 1 119 -4 136 -13 146 -77 13 -77 63 -134 79 -91 4 9 -5 48 -19 85 -40 105 -34 132 45 197 36 29 75 57 88 62 12 5 22 16 22 25 0 8 6 15 13 15 8 0 9 3 1 8 -18 12 -24 124 -8 153 l13 24 1 -30 c1 -16 5 -39 9 -49 12 -31 24 0 16 42 -6 31 -5 34 8 23 13 -10 17 -6 27 24 8 24 21 40 38 47 82 32 99 43 95 59 -7 26 22 83 48 95 13 6 54 26 91 44 56 26 73 30 95 22 l28 -9 -35 -15 c-38 -17 -77 -54 -67 -65 4 -3 24 6 45 21 21 14 44 26 51 26 50 0 142 96 110 115 -5 4 -16 -9 -24 -28 -14 -33 -16 -34 -52 -27 -51 9 -82 30 -90 60 -3 14 -13 30 -22 37 -15 11 -15 12 0 13 9 0 24 9 35 21 16 17 16 22 4 29 -8 6 -24 10 -34 10 -22 0 -94 -40 -147 -82 -20 -15 -40 -28 -44 -28 -17 0 74 95 102 107 18 7 33 20 33 27 0 20 17 23 140 32 87 5 111 11 140 30 19 13 43 24 53 24 10 0 31 7 47 15 25 13 28 20 27 57 -2 37 -5 42 -31 49 -19 5 -41 3 -64 -6 -43 -19 -53 -19 -46 0 3 8 21 19 40 25 19 6 34 16 34 20 0 15 -37 30 -74 30 -29 0 -36 4 -36 19 0 11 -9 26 -21 35 -15 10 -19 20 -14 35 4 15 -8 44 -42 101 -26 44 -51 80 -55 80 -13 0 -40 -49 -33 -60 3 -5 -2 -13 -12 -17 -10 -3 -22 -12 -26 -20 -11 -19 -42 -16 -89 8 -40 21 -40 21 -36 70 5 48 4 49 -22 49 -15 0 -33 7 -41 16 -26 31 -70 45 -151 47 l-82 2 3 -50 c1 -27 7 -57 12 -66 5 -10 3 -23 -5 -35 -12 -16 -10 -23 12 -57 17 -26 25 -52 25 -82 0 -49 -14 -72 -46 -77 -12 -2 -20 -6 -17 -9 3 -3 -1 -13 -7 -21 -10 -11 -10 -23 -2 -46 16 -45 8 -116 -13 -120 -12 -2 -21 6 -27 22 -7 18 -19 25 -43 28 -28 3 -34 8 -41 38 -5 19 -10 45 -10 57 -2 24 -39 43 -85 43 -13 0 -52 17 -86 37 -50 31 -70 38 -114 38 -51 0 -54 2 -77 39 -27 45 -41 56 -72 56 -32 0 -36 15 -18 70 23 70 88 150 121 150 33 0 22 17 -19 29 l-32 9 40 1 c78 2 142 23 160 53 16 27 16 28 -8 28 -30 0 -115 29 -123 42 -4 6 25 7 79 2 62 -5 86 -3 92 6 4 7 2 16 -6 21 -24 15 1 24 61 21 52 -3 62 0 91 26 31 28 32 30 16 53 -21 30 -21 49 0 64 36 26 -27 75 -97 75 -32 0 -36 -9 -20 -40 8 -15 6 -21 -9 -29 -13 -7 -17 -18 -14 -36 3 -15 1 -25 -6 -25 -6 0 -11 -10 -11 -21 0 -19 -4 -21 -32 -15 -49 10 -60 25 -46 63 9 25 9 35 -1 47 -20 24 -38 19 -46 -11 -4 -16 -11 -34 -17 -41 -15 -18 -28 2 -28 46 0 25 -4 32 -19 32 -41 0 -50 9 -38 40 9 24 8 32 -6 48 -9 10 -17 24 -17 30 0 6 -10 18 -22 27 -17 11 -23 26 -24 55 0 35 3 40 22 40 29 0 59 28 72 68 l11 32 -43 0 c-31 0 -51 -7 -72 -25z"/>
<path d="M5323 5379 c-40 -12 -44 -20 -76 -137 l-26 -92 22 -15 c54 -35 235 -49 263 -20 10 9 34 15 65 15 27 0 49 5 49 10 0 15 53 -24 131 -95 36 -33 80 -71 98 -85 32 -24 32 -26 22 -70 -12 -55 -46 -86 -100 -94 -23 -3 -59 -9 -81 -12 -30 -4 -40 -10 -40 -24 0 -25 35 -31 106 -18 56 10 64 9 90 -9 16 -11 38 -23 49 -28 13 -4 15 -9 8 -12 -27 -10 -10 -21 67 -47 111 -36 121 -34 71 15 -23 23 -39 44 -37 47 3 3 29 -7 58 -21 56 -28 62 -27 71 13 8 32 2 40 -48 70 -49 30 -85 68 -85 89 0 9 12 24 25 34 25 18 26 18 53 -3 15 -12 40 -37 55 -56 16 -19 35 -34 42 -34 13 0 55 95 55 125 0 7 -15 17 -32 20 -18 4 -75 25 -127 46 l-94 38 46 22 c26 13 47 26 47 30 0 13 -114 110 -152 130 -21 10 -48 19 -62 19 -15 0 -44 17 -71 40 -53 46 -65 47 -157 21 l-67 -19 -43 51 c-23 29 -42 53 -43 53 -2 8 -128 11 -152 3z"/>
<path d="M4894 5333 c-29 -11 -44 -25 -52 -46 -11 -30 -12 -30 -31 -13 -13 12 -27 16 -38 11 -17 -7 -17 -8 1 -18 10 -7 39 -27 63 -44 52 -40 82 -41 123 -7 28 24 30 28 17 48 -8 12 -29 24 -48 27 l-34 5 28 14 c15 7 27 19 27 27 0 16 -4 16 -56 -4z"/>
<path d="M4608 5228 c-16 -5 -28 -16 -28 -24 0 -10 -7 -13 -23 -9 -19 5 -321 -95 -337 -112 -3 -3 23 -2 57 2 61 7 181 -10 168 -23 -4 -4 -51 -10 -106 -13 -55 -3 -105 -11 -111 -17 -16 -16 35 -44 92 -50 35 -3 51 -9 55 -22 5 -14 13 -16 63 -9 63 9 127 32 154 56 16 14 21 14 50 0 70 -33 148 -33 148 0 0 11 -6 14 -26 9 -19 -5 -25 -3 -22 6 3 7 21 14 41 16 53 5 46 24 -19 58 -50 26 -58 35 -77 84 -23 58 -35 65 -79 48z"/>
<path d="M7880 4938 c-14 -5 -46 -14 -72 -19 -26 -6 -52 -17 -59 -25 -6 -8 -19 -14 -29 -14 -10 0 -23 -13 -30 -30 -10 -24 -16 -28 -26 -19 -7 6 -16 21 -20 32 -10 34 -35 57 -61 57 -12 0 -23 -4 -23 -10 0 -5 5 -10 10 -10 18 0 10 -15 -17 -32 l-28 -17 31 -1 c40 0 62 -23 44 -45 -11 -13 -8 -15 13 -15 14 0 30 -6 34 -14 13 -21 136 -27 197 -9 72 21 152 75 160 107 9 35 1 46 -32 46 -15 0 -36 6 -47 14 -14 9 -27 11 -45 4z"/>
<path d="M5372 4788 c-23 -74 -23 -87 -2 -108 l20 -20 30 21 c25 19 37 21 87 16 l58 -7 -45 40 c-25 21 -58 45 -75 51 -16 7 -37 19 -47 26 -14 13 -17 11 -26 -19z"/>
<path d="M8270 4507 c-29 -10 -36 -18 -40 -47 -4 -19 -12 -45 -19 -57 -14 -27 -10 -28 29 -8 28 14 30 14 30 -3 0 -10 -5 -23 -11 -29 -19 -19 0 -52 34 -58 26 -5 35 -13 43 -41 13 -39 6 -47 -31 -38 -28 7 -30 2 -14 -29 10 -18 8 -24 -17 -44 l-29 -23 53 0 c54 0 69 -13 30 -26 -22 -7 -101 -65 -95 -70 1 -2 20 1 42 6 22 5 75 14 117 20 83 12 171 38 131 39 -27 1 -28 5 -7 41 21 35 12 60 -21 60 -23 0 -26 4 -25 28 1 4 10 6 20 4 32 -5 23 6 -30 39 -27 17 -50 37 -50 44 0 19 -39 45 -67 45 -23 0 -23 0 7 42 44 60 40 72 -16 63 -49 -7 -50 -3 -16 38 18 21 5 22 -48 4z"/>
<path d="M8118 4319 c-9 -5 -15 -16 -12 -23 3 -8 -3 -17 -14 -20 -11 -4 -27 -15 -37 -26 -18 -19 -18 -21 -1 -33 17 -13 17 -15 -3 -48 -30 -50 -28 -62 12 -54 17 4 53 18 80 31 45 24 47 26 47 69 0 24 5 47 10 50 19 12 10 42 -15 53 -31 14 -45 15 -67 1z"/>
<path d="M13648 4155 c2 -14 -1 -32 -8 -40 -18 -22 -25 -338 -7 -332 7 2 20 0 30 -5 22 -11 21 -6 -2 41 -29 56 -6 120 37 104 12 -5 14 -2 8 13 -5 10 -13 37 -18 59 -5 21 -14 45 -19 51 -5 7 -7 24 -3 38 7 30 -3 96 -15 96 -5 0 -6 -11 -3 -25z"/>
<path d="M6421 4053 c-50 -62 -103 -135 -99 -137 2 -2 46 -11 98 -20 54 -10 100 -24 107 -33 6 -8 16 -12 22 -8 17 10 13 52 -9 95 -17 34 -25 40 -53 40 -24 0 -35 6 -44 25 -6 14 -7 27 -2 31 5 3 14 14 19 25 18 33 -7 22 -39 -18z"/>
<path d="M13568 3539 c-11 -6 -17 -21 -16 -42 1 -40 -27 -102 -56 -122 -23 -17 -56 -20 -56 -5 0 25 -20 6 -25 -24 -7 -33 -8 -34 -57 -34 -36 0 -55 -5 -72 -21 -12 -11 -27 -21 -34 -21 -13 0 -72 -60 -72 -74 0 -5 6 -3 13 3 19 15 28 2 16 -21 -6 -11 -8 -27 -5 -35 6 -14 10 -13 31 7 28 26 33 68 10 76 -20 8 -9 24 16 24 14 0 19 -7 19 -24 0 -34 16 -40 40 -16 11 11 29 20 40 20 11 0 20 4 20 9 0 6 12 9 27 8 18 -1 28 3 28 12 0 14 5 16 80 26 83 12 85 13 75 39 -10 27 -5 55 17 105 10 22 13 47 8 77 -6 45 -16 51 -47 33z"/>
<path d="M12687 2292 c-10 -10 -17 -23 -17 -28 0 -10 -111 -87 -142 -99 -10 -4 -18 -13 -18 -21 0 -16 -26 -19 -35 -4 -3 6 -10 10 -15 10 -15 0 -32 -39 -23 -53 4 -6 6 -20 5 -29 -2 -11 3 -18 13 -18 9 0 18 -12 22 -30 4 -24 11 -30 34 -32 37 -2 72 -6 132 -14 42 -6 47 -5 47 13 0 11 8 31 19 44 10 13 22 38 28 54 5 17 15 31 21 31 7 1 15 2 19 3 3 0 -1 9 -9 19 -28 31 -29 65 -3 96 l23 29 -28 23 c-34 29 -51 30 -73 6z"/>
<path d="M11954 2231 c17 -17 36 -31 43 -31 7 0 19 -13 28 -30 9 -16 19 -30 24 -30 9 0 30 -30 81 -114 58 -95 166 -166 184 -120 10 26 7 84 -5 84 -15 0 -79 72 -73 82 9 15 -14 34 -79 66 -35 18 -79 47 -98 66 -35 33 -44 37 -104 51 l-30 7 29 -31z"/>
<path d="M13042 2128 c-15 -15 -88 -19 -121 -7 -42 16 -89 -10 -81 -46 1 -5 -11 -36 -26 -67 -26 -55 -27 -59 -10 -71 14 -10 17 -23 14 -50 -4 -33 -2 -37 20 -37 13 0 21 3 18 8 -2 4 -1 32 3 62 l7 55 27 -42 c29 -46 34 -49 57 -32 11 8 12 12 3 16 -7 2 -13 15 -13 28 0 12 -7 28 -15 35 -20 16 -19 26 3 34 28 10 68 36 56 36 -6 0 -33 -7 -59 -15 -57 -17 -65 -14 -65 26 0 27 2 29 43 30 23 0 60 0 82 -1 32 -1 46 4 64 24 24 25 17 38 -7 14z"/>
<path d="M13275 2073 c-39 -10 -35 -21 12 -32 44 -11 46 -14 30 -26 -18 -13 -18 -14 1 -24 10 -5 52 -21 93 -35 55 -18 78 -31 89 -51 14 -24 13 -27 -2 -39 -27 -20 -22 -26 21 -26 23 0 44 -6 52 -16 17 -21 74 -12 105 17 19 18 30 20 61 15 21 -4 54 -18 73 -30 37 -24 101 -49 107 -42 2 2 -20 23 -49 47 -29 24 -73 65 -98 91 -52 54 -123 89 -232 114 -74 17 -77 17 -104 -2 -15 -10 -33 -23 -41 -29 -11 -7 -19 -4 -34 15 -53 67 -46 62 -84 53z"/>
<path d="M13617 1728 c-10 -22 -13 -52 -10 -88 4 -47 1 -59 -20 -85 l-24 -29 -29 19 c-15 11 -55 31 -88 45 -33 14 -61 31 -63 36 -2 6 8 27 22 48 14 21 23 41 20 46 -7 12 -100 23 -125 15 -13 -4 -19 -12 -16 -21 4 -11 -5 -14 -39 -14 -47 0 -65 -16 -65 -59 0 -25 -9 -26 -69 -5 l-46 17 -68 -52 c-37 -28 -72 -51 -76 -51 -5 0 -16 -18 -25 -39 -18 -45 -29 -53 -106 -70 -64 -13 -160 -65 -160 -86 0 -8 -6 -12 -14 -9 -11 4 -13 -12 -11 -83 1 -78 5 -94 32 -142 41 -70 51 -135 27 -163 -18 -19 -18 -20 6 -39 32 -24 71 -24 118 0 21 11 67 25 102 31 37 7 72 20 81 30 23 26 74 50 107 50 15 0 37 7 48 15 44 33 199 8 244 -40 29 -31 33 -31 77 3 39 29 40 25 17 -33 -7 -18 -6 -18 9 -6 15 12 17 11 17 -4 0 -10 10 -28 23 -41 12 -12 34 -36 49 -52 32 -36 85 -48 135 -31 28 9 37 9 43 -1 14 -22 128 7 168 43 11 10 22 36 25 58 3 24 18 56 35 78 50 62 73 172 56 259 -4 21 -19 39 -44 56 -21 14 -41 34 -45 46 -3 11 -12 20 -19 20 -8 0 -25 15 -39 34 -15 18 -39 37 -54 41 -40 10 -54 24 -47 50 4 16 -1 30 -15 44 -12 12 -21 34 -21 50 0 22 -6 30 -25 35 -17 4 -33 22 -50 56 -14 28 -27 50 -29 50 -2 0 -10 -15 -19 -32z"/>
<path d="M10247 1643 c-4 -3 -7 -15 -7 -25 0 -45 -29 -77 -84 -93 -29 -9 -62 -25 -72 -36 -18 -20 -18 -22 -1 -51 22 -39 22 -43 -8 -82 -32 -42 -32 -74 3 -136 22 -42 31 -50 49 -45 66 16 67 17 106 151 20 71 37 143 37 161 0 17 7 38 15 47 19 18 19 37 1 81 -15 34 -26 42 -39 28z"/>
<path d="M14693 773 c-20 -24 -58 -55 -83 -68 -26 -13 -59 -40 -74 -60 -28 -36 -28 -36 -6 -42 13 -3 19 -11 16 -19 -3 -8 -4 -14 -3 -14 1 0 20 6 42 14 29 10 50 27 75 63 19 27 57 69 83 93 26 24 46 48 44 54 -2 5 -15 13 -30 17 -24 6 -32 2 -64 -38z"/>
</g>
<!-- svg strok -->
<g transform="translate(0,633) scale(0.100000,-0.100000)" fill="#212993" stroke="none">
<path d="M7110 6304 c-52 -8 -147 -28 -210 -44 -67 -18 -1523 -542 -3505 -1264 l-3390 -1234 -3 -106 c-1 -59 1 -106 6 -106 5 0 1561 565 3457 1255 2253 820 3479 1261 3539 1274 140 30 316 44 461 38 103 -5 1051 -150 4500 -691 2404 -377 4420 -695 4480 -707 262 -50 597 -190 807 -336 54 -38 511 -368 1017 -735 506 -368 922 -668 925 -668 3 0 6 55 6 123 l-1 122 -869 630 c-479 347 -912 659 -963 695 -237 165 -486 273 -807 350 -69 16 -888 149 -1820 295 -2447 383 -3382 530 -3665 575 -137 22 -970 153 -1850 291 l-1600 252 -210 3 c-151 2 -237 -1 -305 -12z"/>
</g>
</svg>